<?xml version="1.0" encoding="utf-8"?>
<!-- Generator: Adobe Illustrator 26.0.2, SVG Export Plug-In . SVG Version: 6.00 Build 0)  -->
<svg version="1.1" id="레이어_1" xmlns="http://www.w3.org/2000/svg" xmlns:xlink="http://www.w3.org/1999/xlink" x="0px"
	 y="0px" viewBox="0 0 1920.42 1080" style="enable-background:new 0 0 1920.42 1080;" xml:space="preserve">
<path d="M696.36,496.85c0,0-3.07-11.92,0-17.16c0,0,5.96-8.49,13.18-6.5c0,0,8.85,0.36,14.09,7.77c0,0,5.06,5.06,0,14.99l-3.25,9.93
	c0,0-3.43,1.99,2.71,3.07s5.78,1.63,8.85,3.79c3.07,2.17,2.89,7.04,2.89,7.04l7.77,3.25l4.33,12.64l1.08,8.31l3.43,5.06l1.26,3.97
	l1.08,5.24c0,0,1.63,2.17-4.51,2.17s-6.5-1.44-7.04-2.35c-0.54-0.9-3.25-3.25-3.25-3.25l-1.08-1.63c0,0-1.46-5.91-1.83,4.96
	s-0.85,14.04-0.85,14.04s0.98,3.3-2.08,4.15c-3.05,0.85-3.05,0.85-3.05,0.85s-1.22-0.61-1.22,1.34c0,1.95,2.48,4.15-4.38,3.66
	c0,0-2.46-2.93-2.46,5.13c0,8.06-0.85,11.35-0.85,11.35l0.85,4.88l-0.85,8.67l-0.37,13.67l-2.32,2.56c0,0-1.95,4.15-1.59,4.03
	s0.73,2.69,0.73,2.69l2.08,0.98l0.37,3.78l0.85,4.52l0.73,4.15h-2.44h-3.78l-0.73,4.64l-0.85,3.17h-9.64c0,0-1.46,0.24-1.46-3.91
	c0-4.15,0.37-8.91,0.37-8.91v-3.66c0,0,0.73-4.27,0.61-4.64s-0.12-3.54-0.12-3.54l-3.17-0.12c0,0-1.95-8.55-1.95-8.91
	c0-0.37-1.34-6.47-1.34-6.47s-1.22-5.98-1.34-6.71c-0.12-0.73-2.08-8.42-2.2-8.91c-0.12-0.49-1.83-7.08-1.83-7.08l-1.83-6.59
	l-0.98-5.13c0,0,1.1-3.78-4.03-3.91c0,0-1.95,1.71-2.44,2.69s-2.44,3.91-2.44,3.91l-0.73,2.32c0,0,0.24,3.42-5.25,0.85
	s-5.01-6.47-5.01-6.47l-2.32-4.76c0,0-1.83-1.1,0.61-3.78s5.98-8.02,5.98-8.02l2.56-2.6c0,0,1.83-2.08,0.73-10.86
	c-1.1-8.79-0.73-11.14-0.73-11.14l-0.73-4.36c0,0,2.08-3.05-1.83-1.95l-4.64-5.01l5.49-4.88l-1.59-7.69c0,0-0.98-2.56,3.17-2.08
	c4.15,0.49,5.13,1.83,5.13,1.83l4.39-0.37c0,0,1.22,1.1,4.39-1.83c3.17-2.93,5.74-4.03,5.74-4.03s2.69,0.98,3.17-1.83
	S696.36,496.85,696.36,496.85z"/>
</svg>
